<svg xmlns:dc="http://purl.org/dc/elements/1.1/" xmlns:cc="http://creativecommons.org/ns#" xmlns:rdf="http://www.w3.org/1999/02/22-rdf-syntax-ns#" xmlns:svg="http://www.w3.org/2000/svg" xmlns="http://www.w3.org/2000/svg" xmlns:sodipodi="http://sodipodi.sourceforge.net/DTD/sodipodi-0.dtd" xmlns:inkscape="http://www.inkscape.org/namespaces/inkscape" width="210mm" height="297mm" viewBox="0 0 210 297" version="1.1" id="svg8" inkscape:version="0.92.3 (2405546, 2018-03-11)" sodipodi:docname="drawing.svg">
  <defs id="defs2"/>
  <sodipodi:namedview id="base" pagecolor="#ffffff" bordercolor="#666666" borderopacity="1.0" inkscape:pageopacity="0.0" inkscape:pageshadow="2" inkscape:zoom="0.35" inkscape:cx="-101.42857" inkscape:cy="560" inkscape:document-units="mm" inkscape:current-layer="layer1" showgrid="false" inkscape:window-width="1920" inkscape:window-height="1017" inkscape:window-x="-8" inkscape:window-y="-8" inkscape:window-maximized="1"/>
  <metadata id="metadata5">
    <rdf:RDF>
      <cc:Work rdf:about="">
        <dc:format>image/svg+xml</dc:format>
        <dc:type rdf:resource="http://purl.org/dc/dcmitype/StillImage"/>
        <dc:title/>
      </cc:Work>
    </rdf:RDF>
  </metadata>
  <g inkscape:label="Layer 1" inkscape:groupmode="layer" id="layer1"/>
<path d="M177.22039411839694,72.5715981851345L177.97539260839693,72.5715981851345L177.97539260839693,60.09662313513443L190.67536720839692,60.09662313513443L190.67536720839692,69.79660373513455L188.2503720583975,69.79660373513455L188.2503720583975,77.74658783513456L177.22039411839694,77.74658783513456"/><path d="M173.85040085839705,69.79660373513455L174.47539960839697,69.79660373513455L174.47539960839697,69.07160518513454L176.72539510839707,69.07160518513454L176.72539510839707,58.87162558513446L173.85040085839705,58.87162558513446"/><path d="M177.25039405839706,190.32136268513452L177.25039405839706,177.57138818513457L177.97539260839693,177.57138818513457L177.97539260839693,174.07139518513446L177.25039405839706,174.07139518513446L177.25039405839706,142.571458185135L177.97539260839693,142.571458185135L177.97539260839693,139.07146518513443L177.25039405839706,139.07146518513443L177.25039405839706,107.57152818513495L177.97539260839693,107.57152818513495L177.97539260839693,106.07153118513496L188.2503720583975,106.07153118513496L188.2503720583975,190.32136268513452"/><path d="M188.2503720583975,78.0465872351345L188.2503720583975,105.57153218513457L177.97539260839693,105.57153218513457L177.97539260839693,104.07153518513456L174.47539960839697,104.07153518513456L174.47539960839697,104.89653353513451L159.22543010839698,104.89653353513451L159.22543010839698,95.94655143513505L166.725415108397,95.94655143513505L166.72541510839744,69.796603735135L157.30043395839704,69.79660373513455L157.30043395839704,58.87162558513446L173.22540210839696,58.87162558513446L173.22540210839696,70.4216024851345L174.47539960839697,70.4216024851345L174.47539960839697,72.5715981851345L176.920394718397,72.5715981851345L176.920394718397,78.0465872351345"/><path d="M121.72550510839748,140.32146268513506L112.72552310839703,140.32146268513506L112.72552310839703,104.89653353513451L107.97553260839697,104.89653353513451L107.97553260839697,104.07153518513456L106.20053615839701,104.07153518513456L106.20053615839701,78.29658673513448L116.22551610839699,78.29658673513448L116.22551610839699,95.94655143513447L158.72543110839703,95.94655143513505L158.72543110839703,104.89653353513451L142.97546260839698,104.89653353513451L142.97546260839698,104.07153518513456L139.47546960839702,104.07153518513456L139.47546960839702,104.89653353513451L121.72550510839748,104.89653353513451"/><path d="M128.15049225839698,86.33183672096943L129.78548898839696,82.95684347096947L129.78548898839696,71.04660123513503L128.15049225839698,71.04660123513503L128.15049225839698,71.04660123513503L107.97553260839697,71.04660123513503L107.97553260839697,72.5715981851345L106.20053615839701,72.5715981851345L106.20053615839701,77.79658773513496L116.72551510839702,77.79658773513496L116.72551510839702,95.4465524351345L128.15049225839698,95.4465524351345L128.15049225839698,86.33183672096798"/><path d="M128.650491258397,95.4465524351345L128.650491258397,86.44657043513449L130.285487988397,83.07157718513452L130.285487988397,70.54660223513449L128.560491438397,70.54660223513449L128.560491438397,55.87163158513445L140.725467108397,55.87163158513445L140.725467108397,69.07160518513454L139.47546960839702,69.07160518513497L139.47546960839702,72.5715981851345L139.57546940839697,72.5715981851345L139.57546940839697,87.57156818513496L137.150474258397,87.57156818513496L137.150474258397,95.4465524351345"/><path d="M177.97539260455451,38.97166538633799L194.63341376244148,38.97166538603953L205.40033775395844,30.828758392481976L205.40033775515053,14.018121052681963L177.97539260839693,14.018121052681963"/><path d="M83.85058085839701,87.44656843513454L83.85058085839701,71.04660123513503L104.47553960839701,71.04660123513503L104.47553960839701,72.5715981851345L105.20053815839702,72.5715981851345L105.20053815839702,87.44656843513454"/><path d="M71.45060565839704,87.44656843513454L71.45060565839704,72.5715981851345L72.97560260839703,72.5715981851345L72.97560260839703,71.04660123513503L83.100582358397,71.04660123513503L83.100582358397,87.44656843513454"/><path d="M71.45060565839704,88.19656693513447L105.20053815839702,88.19656693513447L105.20053815839702,104.071535185135L104.47553960839701,104.071535185135L104.47553960839701,104.89653353513451L72.97560260839703,104.89653353513451L72.97560260839703,104.071535185135L71.45060565839704,104.071535185135"/><path d="M71.45060565839704,209.07132518513507L71.45060565839704,177.571388185135L72.97560260839703,177.571388185135L72.97560260839703,174.07139518513503L71.45060565839704,174.07139518513503L71.45060565839704,142.571458185135L72.97560260839703,142.571458185135L72.97560260839703,139.07146518513503L71.45060565839704,139.07146518513503L71.45060565839704,107.57152818513495L72.97560260839703,107.57152818513495L72.97560260839703,105.39653253513447L104.47553960839701,105.39653253513447L104.47553960839701,107.57152818513495L107.97553260839697,107.57152818513495L107.97553260839697,105.39653253513447L112.225524108397,105.39653253513447L112.225524108397,140.32146268513506L107.97553260839697,140.32146268513506L107.97553260839697,139.07146518513503L104.47553960839701,139.07146518513503L104.47553960839701,142.571458185135L106.20053615839701,142.571458185135L106.20053615839701,174.07139518513503L104.47553960839701,174.07139518513503L104.47553960839701,177.571388185135L106.20053615839701,177.571388185135L106.20053615839701,209.07132518513507L104.47553960839701,209.07132518513507L104.47553960839701,210.59632213513453L72.97560260839703,210.59632213513453L72.97560260839703,209.07132518513507"/><path d="M107.97553260839697,210.59632213513453L107.97553260839697,209.07132518513507L107.20053415839699,209.07132518513507L107.20053415839699,177.571388185135L107.97553260839697,177.571388185135L107.97553260839697,174.07139518513503L107.20053415839699,174.07139518513503L107.20053415839699,142.571458185135L107.97553260839697,142.571458185135L107.97553260839697,141.32146068513495L139.47546960839702,141.32146068513495L139.47546960839702,142.571458185135L140.700467158397,142.571458185135L140.700467158397,174.07139518513446L139.47546960839702,174.07139518513446L139.47546960839702,177.571388185135L140.7254671083975,177.571388185135L140.7254671083975,209.07132518513507L139.47546960839702,209.07132518513507L139.47546960839702,210.59632213513453"/><path d="M142.97546260839698,210.59632213513453L142.97546260839698,209.07132518513507L141.72546510839697,209.07132518513507L141.72546510839697,177.571388185135L142.97546260839698,177.571388185135L142.97546260839698,175.79639173513453L174.47539960839697,175.79639173513453L174.47539960839697,177.571388185135L176.25039605839746,177.571388185135L176.25039605839746,209.07132518513507L174.47539960839697,209.07132518513507L174.47539960839697,210.59632213513453"/><path d="M177.97539260839693,210.59632213513453L177.97539260839693,209.07132518513507L177.25039405839706,209.07132518513507L177.25039405839706,190.82136168513446L211.00032655839706,190.82136168513446L211.00032655839706,209.07132518513507L209.475329608397,209.07132518513507L209.475329608397,210.59632213513453"/><path d="M142.97546260839698,174.74639383513494L142.97546260839698,174.07139518513446L141.75046505839703,174.07139518513446L141.75046505839703,142.571458185135L142.97546260839698,142.571458185135L142.97546260839698,141.32146068513495L174.47539960839697,141.32146068513495L174.47539960839697,142.571458185135L176.25039605839703,142.571458185135L176.25039605839746,174.07139518513446L174.47539960839697,174.07139518513446L174.47539960839697,174.74639383513494"/><path d="M188.75037105839743,177.07138918513505L188.750371058397,141.32146068513495L209.475329608397,141.32146068513495L209.475329608397,142.571458185135L211.00032655839706,142.571458185135L211.00032655839706,174.07139518513446L209.475329608397,174.07139518513446L209.475329608397,177.07138918513505"/><path d="M188.750371058397,183.821375685135L188.750371058397,177.571388185135L211.00032655839706,177.571388185135L211.00032655839706,183.821375685135"/><path d="M201.10034635839693,184.32137468513451L225.97529660839749,184.32137468513451L225.97529660839749,183.57137618513443L219.35030985839694,183.57137618513443L219.35030985839694,177.57138818513457L231.22528610839697,177.57138818513457L231.22528610839697,190.32136268513452L201.10034635839693,190.32136268513452"/><path d="M122.225504108397,140.32146268513506L122.225504108397,105.39653253513447L139.47546960839702,105.39653253513447L139.47546960839702,107.57152818513495L142.97546260839698,107.57152818513495L142.97546260839698,105.39653253513447L174.47539960839697,105.39653253513447L174.47539960839697,107.57152818513495L176.25039605839703,107.57152818513495L176.25039605839703,139.07146518513443L174.47539960839697,139.07146518513443L174.47539960839697,140.32146268513506L142.97546260839698,140.32146268513506L142.97546260839698,139.07146518513443L139.47546960839702,139.07146518513443L139.47546960839702,140.32146268513506"/><path d="M188.750371058397,140.32146268513506L188.750371058397,127.94648743513505L215.50031755839692,127.94648743513505L215.50031755839692,135.94647143513444L211.35032585839699,135.94647143513444L211.35032585839699,139.07146518513443L209.475329608397,139.07146518513443L209.475329608397,140.32146268513506"/><path d="M188.750371058397,127.44648843513497L188.750371058397,114.82151368513456L215.50031755839692,114.82151368513456L215.50031755839692,127.44648843513453"/><path d="M188.750371058397,114.32151468513446L188.750371058397,97.32154868513447L215.50031755839692,97.32154868513447L215.50031755839692,100.94654143513456L211.35032585839699,100.94654143513456L211.35032585839699,104.07153518513456L209.475329608397,104.07153518513456L209.475329608397,107.57152818513495L211.35032585839699,107.57152818513453L211.35032585839699,110.69652193513451L215.50031755839692,110.69652193513451L215.50031755839692,114.32151468513446"/><path d="M188.750371058397,96.82154968513453L188.750371058397,84.19657493513499L215.50031755839692,84.19657493513499L215.50031755839692,96.82154968513453"/><path d="M188.750371058397,83.69657593513446L188.750371058397,71.04660123513503L209.475329608397,71.04660123513503L209.475329608397,72.5715981851345L211.35032585839699,72.5715981851345L211.35032585839699,75.69659193513449L215.50031755839692,75.69659193513449L215.50031755839692,83.69657593513446"/><path d="M188.75037105839743,190.32136268513452L188.750371058397,184.32137468513451L201.10034635839693,184.32137468513451L201.10034635839693,190.32136268513452"/><path d="M140.075468408397,85.82157168513454L140.075468408397,78.8215856851345L155.225438108397,78.8215856851345L155.225438108397,76.21159090513451L166.22541610839704,76.21159090513451L166.22541610839704,95.4465524351345L150.22544810839702,95.4465524351345L150.22544810839702,86.32157068513494L154.975438608397,86.32157068513494L154.975438608397,85.82157168513454"/><path d="M140.075468408397,78.32158668513497L140.075468408397,72.5715981851345L142.97546260839698,72.5715981851345L142.97546260839698,71.04660123513503L154.72543910839696,71.04660123513503L154.72543910839696,78.32158668513453"/><path d="M155.225438108397,75.71159190513455L155.225438108397,71.04660123513503L161.72542510839702,71.04660123513503L161.72542510839702,70.29660273513495L166.22541610839704,70.29660273513495L166.22541610839704,75.711591905135"/><path d="M142.97546260839698,69.79660373513455L142.97546260839698,69.07160518513497L141.475465608397,69.07160518513454L141.475465608397,44.37165458513453L141.684478916723,44.37165458513453L141.684478916723,43.37165658513448L155.67543720839706,43.37165658513448L155.67543720839706,44.37165458513453L156.80043495839695,44.37165458513453L156.80043495839695,69.79660373513455"/><path d="M157.30043395839704,58.37162658513451L157.30043395839704,43.37165658513448L176.72539510839707,43.37165658513448L176.72539510839707,58.37162658513451"/><path d="M137.150474258397,95.4465524351345L137.150474258397,87.57156818513496L139.57546940839697,87.57156818513496L139.57546940839697,86.32157068513494L149.72544910839702,86.32157068513494L149.72544910839702,95.4465524351345"/></svg>