<?xml version="1.0" standalone="no"?>
<!DOCTYPE svg PUBLIC "-//W3C//DTD SVG 20010904//EN"
 "http://www.w3.org/TR/2001/REC-SVG-20010904/DTD/svg10.dtd">
<svg version="1.0" xmlns="http://www.w3.org/2000/svg"
 width="1578.000000pt" height="1451.000000pt" viewBox="0 0 1578.000000 1451.000000"
 preserveAspectRatio="xMidYMid meet">

<g transform="translate(0.000000,1451.000000) scale(0.100000,-0.100000)"
fill="#000000" stroke="none">
<path d="M2367 12783 c-4 -3 -7 -62 -7 -130 l0 -123 25 0 25 0 0 -1059 0
-1060 -22 -3 c-22 -3 -23 -7 -26 -130 l-3 -128 26 0 25 0 0 -1059 0 -1060 -22
-3 c-23 -3 -23 -6 -23 -133 0 -127 0 -130 23 -133 l22 -3 0 -1052 0 -1052 -22
-10 c-22 -10 -23 -15 -23 -135 0 -122 1 -125 23 -128 l22 -3 0 -1052 0 -1052
-22 -10 c-22 -10 -23 -16 -26 -138 l-3 -128 133 3 c129 3 133 4 136 25 l3 23
1054 0 1054 0 3 -22 c3 -22 7 -23 136 -26 l132 -3 0 26 0 25 645 0 645 0 0
-940 0 -940 1728 0 c1331 0 1731 3 1740 12 9 9 12 156 12 600 l0 588 60 0 59
0 3 -137 3 -138 42 2 c90 4 183 67 236 161 l24 42 18 -40 c34 -76 131 -149
220 -166 60 -11 65 1 65 147 l0 128 73 3 72 3 3 338 2 337 613 0 612 0 10 -23
c10 -21 15 -22 135 -22 l125 0 3 122 c2 114 1 123 -18 133 -16 9 -20 21 -20
65 l0 55 129 0 c96 0 131 3 140 14 8 10 10 263 9 937 l-3 924 -137 3 -138 3 0
58 c0 50 3 59 20 64 19 5 20 14 20 132 0 118 -1 127 -20 132 -17 5 -20 14 -20
59 l0 54 121 0 c66 0 129 5 140 10 19 10 19 31 19 933 0 705 -3 926 -12 935
-8 8 -54 12 -140 12 l-128 0 0 54 c0 46 3 54 20 59 20 5 20 12 18 134 -3 124
-4 128 -25 131 l-23 3 0 1060 0 1059 25 0 25 0 0 130 0 130 -25 0 -25 0 0 190
0 190 215 0 c208 0 215 -1 215 -20 0 -19 -7 -20 -141 -20 l-141 0 7 -42 c21
-127 105 -219 225 -248 l49 -12 3 -56 3 -57 450 0 450 0 0 495 0 495 -667 3
-668 2 0 600 0 600 25 0 25 0 0 130 0 131 -132 -3 c-129 -3 -133 -4 -136 -25
l-3 -23 -1054 0 -1054 0 -3 23 c-3 22 -6 22 -133 22 -127 0 -130 0 -133 -22
l-3 -23 -1060 0 -1059 0 0 25 0 26 -122 -3 c-117 -3 -124 -4 -133 -25 l-10
-23 -1057 0 -1058 0 0 25 0 26 -127 -3 c-122 -3 -128 -4 -138 -25 l-10 -23
-1052 0 -1053 0 0 25 0 25 -128 0 c-71 0 -132 -3 -135 -7z m233 -123 l0 -110
-105 0 -105 0 0 110 0 110 105 0 105 0 0 -110z m2380 0 l0 -110 -105 0 -105 0
0 110 0 110 105 0 105 0 0 -110z m2390 0 l0 -110 -110 0 -110 0 0 110 0 110
110 0 110 0 0 -110z m2380 0 l0 -110 -105 0 -105 0 0 110 0 110 105 0 105 0 0
-110z m2380 0 l0 -110 -105 0 -105 0 0 110 0 110 105 0 105 0 0 -110z m-7380
30 l0 -30 -1060 0 -1060 0 0 30 0 30 1060 0 1060 0 0 -30z m2380 0 l0 -30
-1060 0 -1060 0 0 30 0 30 1060 0 1060 0 0 -30z m2380 0 l0 -30 -1060 0 -1060
0 0 30 0 30 1060 0 1060 0 0 -30z m2380 0 l0 -30 -1060 0 -1060 0 0 30 0 30
1060 0 1060 0 0 -30z m-7140 -110 l0 -50 55 0 55 0 0 -1059 0 -1060 -52 -3
-53 -3 -3 -127 -3 -128 56 0 55 0 0 -1059 0 -1060 -52 -3 -53 -3 -3 -127 -3
-128 131 0 130 0 0 40 0 40 130 0 130 0 0 -765 0 -765 -135 0 -135 0 0 -38 c0
-85 82 -199 170 -236 l32 -13 -34 -14 c-45 -18 -115 -85 -139 -132 -11 -21
-23 -61 -26 -88 l-6 -49 137 0 136 0 0 -125 0 -125 -130 0 -129 0 -3 73 -3 72
-125 0 -125 0 -3 -72 -3 -73 -34 0 -35 0 0 135 0 135 -37 0 c-81 0 -198 -85
-232 -167 l-13 -32 -27 52 c-43 83 -143 147 -230 147 l-31 0 0 -135 0 -135
-740 0 -739 0 -3 73 -3 72 -52 3 -53 3 0 1060 0 1059 55 0 56 0 -3 128 -3 127
-52 3 -53 3 0 1060 0 1059 55 0 56 0 -3 128 -3 127 -52 3 -53 3 0 1059 0 1059
53 3 52 3 3 48 3 47 1060 0 1059 0 0 -50z m2380 0 l0 -50 40 0 40 0 0 -908 c0
-693 3 -911 12 -920 8 -8 62 -12 175 -12 90 0 163 -1 163 -3 0 -2 -7 -27 -16
-56 -19 -64 -81 -136 -141 -163 -23 -10 -73 -21 -110 -25 -38 -3 -73 -11 -79
-18 -5 -8 -26 -15 -45 -17 l-34 -3 -3 -127 -3 -128 41 0 40 0 0 -1059 0 -1060
-37 -3 c-37 -3 -38 -4 -41 -45 l-3 -43 -617 -2 -617 -3 -3 -167 c-2 -166 -3
-168 -25 -168 -34 1 -108 38 -146 73 -39 37 -81 120 -81 160 0 48 -27 32 -34
-22 -11 -86 -83 -168 -175 -199 -73 -25 -70 -31 -73 156 l-3 167 -172 3 -173
2 0 45 c0 41 -2 45 -25 45 l-25 0 0 1060 0 1060 25 0 25 0 0 130 0 130 -25 0
-25 0 0 1060 0 1060 25 0 c23 0 25 3 25 50 l0 50 1060 0 1060 0 0 -50z m2380
0 l0 -50 60 0 60 0 0 -670 0 -670 170 0 170 0 0 -30 c0 -44 -23 -92 -66 -140
-44 -49 -75 -66 -144 -81 -58 -12 -64 -24 -17 -33 43 -8 83 -43 102 -88 l15
-38 -103 0 c-67 0 -107 -4 -115 -12 -8 -8 -12 -64 -12 -185 l0 -172 -57 -3
-58 -3 -3 -57 -3 -58 -1059 0 -1060 0 0 60 0 60 -42 1 -43 1 47 13 c127 35
211 127 225 246 l6 49 -137 0 -136 0 0 905 0 905 40 0 40 0 0 50 0 50 1060 0
1060 0 0 -50z m2380 0 l0 -50 55 0 55 0 0 -610 0 -610 -864 0 -863 0 -7 41
c-9 59 -38 109 -89 157 -53 48 -99 69 -159 74 l-43 3 -3 -137 -3 -138 -124 0
-125 0 0 610 0 610 25 0 c23 0 25 3 25 50 l0 50 1060 0 1060 0 0 -50z m-9390
-1110 l0 -1060 -30 0 -30 0 0 1060 0 1060 30 0 30 0 0 -1060z m2430 0 c0
-1053 0 -1060 -20 -1060 -20 0 -20 7 -20 1060 0 1053 0 1060 20 1060 20 0 20
-7 20 -1060z m2350 155 c0 -898 0 -905 -20 -905 -20 0 -20 7 -20 905 0 898 0
905 20 905 20 0 20 -7 20 -905z m2420 245 c0 -653 0 -660 -20 -660 -20 0 -20
7 -20 660 0 653 0 660 20 660 20 0 20 -7 20 -660z m2380 35 l0 -625 -30 0 -30
0 0 625 0 625 30 0 30 0 0 -625z m-1985 -369 c88 -40 140 -116 153 -224 l7
-57 97 -3 97 -3 3 -27 3 -27 154 -3 153 -3 -7 -37 c-4 -20 -8 -39 -10 -41 -3
-2 -22 4 -45 13 -22 9 -56 16 -75 16 l-35 0 0 -95 c0 -107 4 -102 -90 -107
l-45 -3 0 -730 0 -730 153 -3 c83 -1 152 -6 152 -10 0 -5 -7 -32 -16 -61 -29
-99 -118 -169 -229 -180 l-60 -6 0 -695 0 -695 154 -3 153 -3 -7 -36 c-10 -56
-39 -105 -88 -150 -44 -41 -74 -53 -167 -70 l-45 -8 0 -305 0 -305 153 -3 c83
-1 152 -6 152 -10 0 -5 -7 -31 -15 -58 -30 -100 -117 -170 -227 -182 l-63 -7
0 -315 0 -315 154 -3 153 -3 -7 -36 c-10 -55 -39 -105 -83 -145 -57 -51 -78
-61 -152 -67 l-65 -6 -5 -135 c-3 -74 -3 -283 0 -465 l5 -330 154 -3 153 -3
-7 -36 c-14 -76 -72 -155 -136 -189 -17 -8 -60 -20 -97 -27 l-67 -12 0 -315 0
-315 153 -3 153 -3 -6 -32 c-10 -45 -49 -118 -77 -143 -38 -36 -105 -64 -166
-72 -55 -7 -57 -8 -60 -40 -3 -28 -7 -32 -33 -32 l-29 0 0 128 c0 77 -4 132
-11 139 -14 14 -89 -1 -147 -29 -52 -26 -116 -95 -134 -144 l-12 -33 -17 38
c-24 54 -83 116 -133 140 -55 27 -131 42 -145 28 -7 -7 -11 -62 -11 -138 l0
-128 -47 -3 -48 -3 -3 -187 -2 -187 -83 -3 -82 -3 -3 -67 -3 -67 -37 -3 -37
-3 -3 -392 -2 -393 -378 -2 -377 -3 -3 -152 c-1 -84 -6 -153 -10 -153 -34 0
-115 36 -150 66 -55 46 -84 104 -91 179 -5 52 -9 60 -28 63 -22 3 -23 7 -23
116 0 74 -4 116 -12 124 -8 8 -57 12 -155 12 -159 0 -154 -3 -131 72 15 50 79
123 130 149 22 11 68 23 102 27 l61 7 3 107 3 107 152 3 152 3 7 59 c14 113
79 197 176 230 76 26 72 34 72 -140 l0 -155 38 3 37 3 0 895 0 895 -255 5
c-176 4 -212 6 -117 8 l137 2 0 38 c0 43 -35 123 -74 169 -14 17 -49 43 -76
56 l-49 25 32 13 c44 18 115 85 138 132 11 21 23 60 26 87 l6 49 -139 4 c-77
1 89 4 368 5 l507 2 3 -27 3 -28 130 0 130 0 3 110 c4 136 0 155 -33 155 l-25
0 2 1058 3 1057 23 3 c22 3 22 6 22 133 l0 129 -25 0 -25 0 -2 488 -3 487 -72
6 c-89 8 -151 37 -198 92 -29 34 -65 116 -65 149 0 4 77 8 170 8 l170 0 0 445
0 445 25 0 25 0 0 130 0 130 -25 0 -25 0 0 170 0 170 80 0 c79 0 80 0 80 26 0
37 -27 90 -61 118 l-28 24 41 18 c87 39 168 157 168 244 l0 30 -140 0 c-133 0
-140 1 -140 20 0 19 7 20 128 20 86 0 132 4 140 12 8 8 12 57 12 155 0 142 0
143 23 143 12 0 45 -11 72 -24z m3335 -706 l0 -470 -436 0 c-344 0 -435 3
-432 13 4 9 99 13 421 15 l417 2 -2 443 -3 442 -642 3 c-417 1 -643 6 -643 12
0 7 230 10 660 10 l660 0 0 -470z m-3517 453 c-34 -2 -93 -2 -130 0 -37 2 -9
3 62 3 72 0 102 -1 68 -3z m1343 0 c-533 -2 -753 -6 -763 -14 -7 -6 -14 -23
-14 -38 -1 -21 -3 -20 -8 9 l-6 35 -100 6 c-55 3 292 5 770 5 l870 -1 -749 -2z
m64 -223 l0 -190 -80 0 -80 0 0 135 0 135 -33 0 c-87 0 -178 -57 -227 -142
l-28 -51 -20 39 c-11 22 -36 55 -55 73 -30 29 -34 38 -26 59 5 13 9 39 9 58
l0 34 -135 0 c-128 0 -135 1 -135 20 0 20 7 20 405 20 l405 0 0 -190z m90 0
l0 -190 -30 0 -30 0 0 190 0 190 30 0 30 0 0 -190z m90 0 l0 -190 -30 0 -30 0
0 190 0 190 30 0 30 0 0 -190z m90 0 l0 -190 -30 0 -30 0 0 190 0 190 30 0 30
0 0 -190z m90 0 l0 -190 -30 0 -30 0 0 190 0 190 30 0 30 0 0 -190z m90 0 l0
-190 -30 0 -30 0 0 190 0 190 30 0 30 0 0 -190z m90 0 l0 -190 -30 0 -30 0 0
190 0 190 30 0 30 0 0 -190z m100 0 l0 -190 -35 0 -35 0 0 190 0 190 35 0 35
0 0 -190z m520 0 l0 -190 -250 0 -250 0 0 190 0 190 250 0 250 0 0 -190z m90
0 l0 -190 -35 0 -35 0 0 190 0 190 35 0 35 0 0 -190z m90 0 l0 -190 -35 0 -35
0 0 190 0 190 35 0 35 0 0 -190z m90 0 l0 -190 -35 0 -35 0 0 190 0 190 35 0
35 0 0 -190z m90 0 l0 -190 -35 0 -35 0 0 190 0 190 35 0 35 0 0 -190z m90 0
l0 -190 -35 0 -35 0 0 190 0 190 35 0 35 0 0 -190z m90 0 l0 -190 -35 0 -35 0
0 190 0 190 35 0 35 0 0 -190z m350 -230 l0 -420 -165 0 -165 0 0 420 0 420
165 0 165 0 0 -420z m-2664 268 c13 -6 24 -15 24 -19 0 -13 -59 -77 -91 -100
l-29 -20 0 81 0 82 36 -7 c20 -3 47 -11 60 -17z m434 -133 l0 -155 430 0 430
0 0 -200 0 -200 -745 0 -745 0 0 199 0 200 48 3 47 3 3 60 c3 59 4 61 43 83
22 13 54 43 72 68 l31 44 29 -27 c37 -35 65 -90 73 -142 11 -70 24 -63 38 20
13 77 84 153 175 185 74 27 71 32 71 -141z m-550 -70 c0 -22 -4 -25 -40 -25
-33 0 -40 3 -40 19 0 20 16 28 58 30 17 1 22 -4 22 -24z m-98 -42 c6 -7 29
-14 52 -15 41 -1 41 -1 -9 -7 l-50 -6 0 -215 0 -215 705 -5 705 -5 -696 -3
c-568 -2 -699 -4 -708 -15 -7 -10 -12 -148 -14 -448 -1 -239 -3 -112 -3 281
-1 393 1 704 3 690 3 -14 10 -31 15 -37z m1301 -20 c-117 -2 -309 -2 -425 0
-117 1 -22 2 212 2 234 0 329 -1 213 -2z m287 -208 l0 -215 -30 0 -30 0 0 215
0 215 30 0 30 0 0 -215z m940 205 c0 -7 -158 -10 -455 -10 -297 0 -455 3 -455
10 0 7 158 10 455 10 297 0 455 -3 455 -10z m-360 -230 l0 -190 -35 0 c-32 0
-35 2 -35 30 0 18 -6 33 -15 36 -12 5 -15 28 -15 124 0 92 3 120 15 130 8 7
15 23 15 36 0 21 5 24 35 24 l35 0 0 -190z m90 0 l0 -190 -35 0 -35 0 0 190 0
190 35 0 35 0 0 -190z m90 0 l0 -190 -35 0 -35 0 0 190 0 190 35 0 35 0 0
-190z m90 0 l0 -190 -35 0 -35 0 0 190 0 190 35 0 35 0 0 -190z m90 0 l0 -190
-35 0 -35 0 0 190 0 190 35 0 35 0 0 -190z m-3320 -20 c0 -163 -1 -170 -20
-170 -19 0 -20 7 -20 170 0 163 1 170 20 170 19 0 20 -7 20 -170z m2840 25 l0
-125 -27 0 c-94 1 -203 108 -220 216 l-6 34 127 0 126 0 0 -125z m-5267 -192
c-7 -2 -19 -2 -25 0 -7 3 -2 5 12 5 14 0 19 -2 13 -5z m-4673 -133 l0 -110
-105 0 -105 0 0 110 0 110 105 0 105 0 0 -110z m2380 0 l0 -110 -105 0 -105 0
0 110 0 110 105 0 105 0 0 -110z m2388 -2 l3 -108 -111 0 -110 0 0 110 0 111
108 -3 107 -3 3 -107z m2382 2 l0 -110 -105 0 -105 0 0 110 0 110 105 0 105 0
0 -110z m2380 0 l0 -110 -105 0 -105 0 0 110 0 110 105 0 105 0 0 -110z m-240
-30 l0 -100 55 0 55 0 0 -1060 0 -1060 -43 0 c-52 0 -67 -13 -67 -57 l0 -33
-690 0 -690 0 0 624 c0 694 -7 625 65 641 101 22 205 149 205 250 l0 35 -135
0 -135 0 0 430 0 430 690 0 690 0 0 -100z m-2907 3 c-293 -2 -773 -2 -1065 0
-293 1 -54 2 532 2 586 0 825 -1 533 -2z m0 -30 c-293 -2 -773 -2 -1065 0
-293 1 -54 2 532 2 586 0 825 -1 533 -2z m527 -53 c0 -18 7 -20 60 -20 l60 0
0 -430 0 -430 -135 0 -135 0 0 -42 c1 -111 112 -235 228 -254 l42 -7 0 -478 0
-478 -57 -3 -58 -3 -3 -42 -3 -43 -1060 0 -1059 0 0 45 0 45 -40 0 -40 0 0
1060 0 1060 40 0 c33 0 40 3 40 20 0 20 7 20 1060 20 1053 0 1060 0 1060 -20z
m-7010 -1080 l0 -1060 -30 0 -30 0 0 1060 0 1060 30 0 30 0 0 -1060z m2430 0
c0 -1053 0 -1060 -20 -1060 -20 0 -20 7 -20 1060 0 1053 0 1060 20 1060 20 0
20 -7 20 -1060z m2317 -533 c-1 -292 -2 -53 -2 533 0 586 1 825 2 532 2 -292
2 -772 0 -1065z m30 0 c-1 -292 -2 -53 -2 533 0 586 1 825 2 532 2 -292 2
-772 0 -1065z m2423 1163 c0 -423 0 -430 -20 -430 -20 0 -20 7 -20 430 0 423
0 430 20 430 20 0 20 -7 20 -430z m2380 -630 l0 -1060 -30 0 -30 0 0 1060 0
1060 30 0 30 0 0 -1060z m-1603 -837 c-1 -175 -2 -34 -2 312 0 347 1 490 2
318 2 -171 2 -455 0 -630z m-777 257 c0 -473 0 -480 -20 -480 -20 0 -20 7 -20
480 0 473 0 480 20 480 20 0 20 -7 20 -480z m-7100 -615 l0 -105 -105 0 -105
0 0 105 0 105 105 0 105 0 0 -105z m2380 0 l0 -105 -105 0 -105 0 0 105 0 105
105 0 105 0 0 -105z m2390 0 l0 -105 -110 0 -110 0 0 105 0 105 110 0 110 0 0
-105z m2380 0 l0 -105 -105 0 -105 0 0 105 0 105 105 0 105 0 0 -105z m2380 0
l0 -105 -105 0 -105 0 0 105 0 105 105 0 105 0 0 -105z m-6790 0 c0 -16 -6
-25 -15 -25 -13 0 -15 -94 -17 -777 l-3 -778 -5 775 -5 775 -142 3 -143 3 0
24 0 25 165 0 165 0 0 -25z m1790 0 l0 -25 -587 -2 -588 -3 -3 -1184 c-1 -862
1 -1188 9 -1197 9 -11 119 -14 593 -17 l581 -2 -595 0 -595 0 -3 1200 c-2
1052 -4 1200 -17 1208 -8 4 -15 17 -15 27 0 20 12 20 610 20 l610 0 0 -25z
m2380 0 l0 -25 -1060 0 -1060 0 0 25 0 25 1060 0 1060 0 0 -25z m2380 0 l0
-25 -707 2 -708 3 -3 23 -3 22 710 0 711 0 0 -25z m-6542 -185 c-3 -139 -3
-140 20 -140 12 0 22 4 22 9 0 5 9 7 20 4 12 -3 20 0 20 6 0 7 4 9 10 6 29
-18 151 85 172 147 l11 30 24 -44 c13 -24 34 -54 46 -66 30 -33 104 -75 117
-67 5 3 10 1 10 -5 0 -6 8 -10 18 -9 9 1 25 -1 35 -6 9 -4 24 -5 32 -1 13 5
15 -119 17 -1062 l3 -1067 609 -3 608 -2 -4 -30 -5 -30 129 0 128 0 0 30 c0
23 4 30 20 30 19 0 20 7 20 160 0 100 4 160 10 160 6 0 10 -4 10 -8 0 -4 21
-14 47 -20 36 -10 61 -27 103 -70 30 -31 56 -64 57 -72 7 -58 20 -104 32 -108
9 -3 11 2 6 17 -4 12 -2 21 4 21 6 0 11 9 11 20 0 30 35 93 72 130 34 34 100
69 131 70 9 0 17 5 17 10 0 6 4 10 10 10 6 0 11 -64 12 -157 l3 -158 240 -3
c199 -2 241 -5 248 -17 6 -12 36 -15 162 -15 97 0 155 -4 155 -10 0 -5 -4 -10
-9 -10 -5 0 -12 -15 -15 -33 -10 -55 -60 -123 -113 -153 -26 -16 -49 -31 -51
-35 -2 -4 -12 -5 -22 -2 -11 3 -20 1 -20 -4 0 -6 -11 -8 -25 -5 -19 3 -25 0
-25 -13 0 -14 7 -16 35 -13 19 2 35 2 35 -2 0 -3 20 -13 44 -23 43 -18 140
-110 128 -121 -3 -3 0 -6 6 -6 6 0 9 -7 6 -15 -4 -8 -2 -15 4 -15 6 0 8 -9 5
-21 -4 -12 0 -25 8 -30 8 -5 -48 -9 -143 -9 -129 0 -159 -3 -165 -15 -8 -13
-118 -15 -873 -17 l-865 -3 0 -48 c0 -26 -4 -47 -9 -47 -4 0 -6 -9 -3 -20 3
-11 2 -20 -3 -20 -4 0 -13 -13 -20 -29 -16 -40 -110 -125 -141 -129 -13 -1
-25 -6 -27 -11 -1 -4 -14 -6 -27 -3 l-25 4 0 154 0 154 -443 0 c-331 0 -446
-3 -455 -12 -9 -9 -12 -95 -12 -326 l0 -313 -135 3 -135 3 0 -32 c0 -18 4 -33
9 -33 5 0 7 -8 5 -17 -8 -31 57 -125 110 -161 27 -18 55 -31 63 -28 31 12 9
-11 -26 -27 -72 -33 -162 -145 -147 -183 3 -8 1 -14 -4 -14 -6 0 -10 -13 -10
-30 l0 -30 -190 0 c-120 0 -190 4 -190 10 0 6 -63 10 -169 10 l-169 0 -4 25
c-3 14 -2 25 1 25 4 0 13 16 20 36 17 47 88 118 135 135 20 7 36 16 36 19 0 3
16 4 35 2 28 -3 35 -1 35 13 0 13 -6 16 -25 11 -16 -4 -25 -2 -25 5 0 6 -9 9
-20 6 -11 -3 -20 -2 -20 3 0 4 -13 13 -30 20 -16 7 -49 34 -72 60 -61 68 -65
74 -60 88 2 6 0 12 -5 12 -5 0 -8 13 -5 30 l4 30 167 2 166 3 3 588 2 587 60
0 c60 0 60 0 60 30 l0 29 153 3 152 3 5 163 5 162 -160 0 c-88 0 -155 4 -149
8 6 4 14 23 18 43 11 59 59 125 118 158 29 17 61 31 71 31 9 0 17 4 17 9 0 4
11 6 25 3 19 -3 25 0 25 13 0 14 -7 16 -35 13 -19 -2 -35 0 -35 5 0 5 -6 7
-12 5 -7 -3 -17 -1 -23 4 -5 4 -30 23 -55 41 -25 18 -56 53 -69 77 -14 25 -28
46 -31 48 -4 1 -5 14 -2 27 3 16 0 26 -9 27 -8 1 57 5 144 8 l158 5 -1 778 c0
698 1 777 15 777 14 0 16 -18 13 -140z m569 -57 c-2 -38 -3 -7 -3 67 0 74 1
105 3 68 2 -38 2 -98 0 -135z m1213 157 l0 -40 130 0 130 0 0 40 0 40 1060 0
1060 0 0 -40 0 -40 60 0 60 0 0 -1060 0 -1060 -48 0 c-26 0 -53 -5 -60 -12 -7
-7 -12 -39 -12 -75 l0 -63 -765 0 -765 0 0 136 0 137 -55 -6 c-89 -9 -176 -72
-221 -158 l-16 -32 -29 51 c-48 85 -139 142 -226 142 l-33 0 -2 -137 c-1 -88
-3 -110 -5 -60 l-4 78 -127 -3 -127 -3 -3 -72 -3 -73 -574 0 -575 0 0 1175 0
1175 575 0 575 0 0 -40z m4760 0 l0 -40 65 0 64 0 3 -107 3 -108 138 -3 137
-3 0 -259 0 -260 -895 0 -895 0 0 253 0 254 59 16 c32 9 78 31 102 50 54 41
109 141 109 198 l0 38 -137 4 c-76 1 174 4 555 5 l692 2 0 -40z m-9392 -1102
l2 -1058 -30 0 -30 0 0 1061 0 1060 28 -3 27 -3 3 -1057z m7202 2 c0 -1053 0
-1060 -20 -1060 -20 0 -20 7 -20 1060 0 1053 0 1060 20 1060 20 0 20 -7 20
-1060z m2500 880 l140 0 0 -885 0 -885 -140 0 -139 0 -4 -87 -3 -88 -2 93 -2
92 128 0 c86 0 132 4 140 12 17 17 17 1709 0 1726 -8 8 -54 12 -140 12 l-128
0 2 93 2 92 3 -87 4 -88 139 0z m-805 -580 l910 -5 -908 -3 -908 -2 -9 -22
c-5 -15 -8 88 -7 272 l1 295 6 -265 5 -265 910 -5z m905 -455 l0 -415 -895 0
-895 0 0 265 0 265 28 0 c40 1 112 36 155 78 49 47 77 100 84 162 l6 49 -139
4 c-77 1 265 4 759 5 l897 2 0 -415z m-905 -435 l910 -5 -902 -3 -902 -2 -15
-22 c-15 -21 -16 4 -14 277 l3 300 5 -270 5 -270 910 -5z m905 -150 l0 -109
-137 -3 -138 -3 -3 -102 -3 -103 -53 0 c-34 0 -58 -5 -65 -14 -8 -9 -11 -54
-9 -132 l3 -119 62 -3 62 -3 3 -102 3 -102 138 -3 137 -3 0 -109 0 -110 -895
0 -895 0 0 408 0 409 58 16 c82 23 143 73 181 148 18 37 31 78 31 100 l0 38
-137 4 c-76 1 266 4 760 5 l897 2 0 -110z m-1806 -1039 c9 -8 272 -12 912 -14
l899 -2 -907 -3 c-852 -2 -908 -3 -917 -19 -7 -13 -10 122 -8 432 l2 450 2
-416 c3 -333 6 -419 17 -428z m-6254 789 c75 -38 127 -110 139 -188 8 -61 27
-64 34 -7 14 97 87 182 181 210 27 8 53 15 58 15 4 0 9 -69 10 -152 l3 -153
43 -3 c39 -3 42 -5 42 -33 0 -24 4 -29 25 -29 l25 0 0 -525 0 -525 -1140 0
-1140 0 0 524 0 525 53 3 c48 3 52 5 55 30 l3 28 747 2 747 3 3 154 3 153 36
-7 c21 -4 53 -15 73 -25z m1070 -115 l0 -145 -152 2 -153 2 134 3 c78 2 140 8
148 15 9 8 13 45 13 139 0 71 2 129 5 129 3 0 5 -65 5 -145z m-2710 -90 l0
-105 -105 0 -105 0 0 105 0 105 105 0 105 0 0 -105z m2380 0 l0 -105 -105 0
-105 0 0 105 0 105 105 0 105 0 0 -105z m2390 0 l0 -105 -110 0 -110 0 0 105
0 105 110 0 110 0 0 -105z m2380 0 l0 -105 -105 0 -105 0 0 105 0 105 105 0
105 0 0 -105z m2380 0 l0 -105 -105 0 -105 0 0 105 0 105 105 0 105 0 0 -105z
m-8387 -52 c-205 -2 -541 -2 -745 0 -205 1 -38 2 372 2 410 0 577 -1 373 -2z
m990 0 c-7 -2 -21 -2 -30 0 -10 3 -4 5 12 5 17 0 24 -2 18 -5z m4400 0 c-210
-2 -556 -2 -770 0 -213 1 -41 2 382 2 424 0 598 -1 388 -2z m-6633 -1143 l0
-1060 -30 0 -30 0 0 1060 0 1060 30 0 30 0 0 -1060z m2360 485 c0 -568 0 -575
-20 -575 -20 0 -20 7 -20 575 0 568 0 575 20 575 20 0 20 -7 20 -575z m7340
395 l140 0 0 -880 0 -879 -137 -3 -138 -3 -6 -85 -5 -85 -2 92 -2 92 138 3
137 3 0 865 0 865 -137 3 -138 3 2 97 2 97 3 -92 4 -93 139 0z m100 -730 l0
-420 -895 0 -895 0 0 263 0 262 59 17 c32 10 79 33 102 51 54 41 109 141 109
198 l0 38 -137 4 c-76 1 266 4 760 5 l897 2 0 -420z m-5887 350 l-23 -9 0
-306 0 -307 55 -115 55 -116 0 -418 0 -419 -47 1 -48 2 40 6 40 6 3 412 2 413
-52 102 -53 103 -5 320 -5 320 -397 3 -398 2 -3 -302 -2 -303 -3 308 -2 307
433 -1 c268 0 423 -4 410 -9z m2567 -870 c0 -484 -3 -880 -7 -880 -5 0 -8 393
-8 872 l0 873 -550 0 -550 0 0 -315 0 -315 160 -5 c91 -3 -57 -7 -342 -8
l-503 -2 -5 -22 c-3 -13 -6 -52 -8 -88 -3 -53 -4 -48 -5 27 l-2 93 343 2 342
3 0 315 0 315 -560 5 c-445 4 -328 6 568 8 l1127 2 0 -880z m-2620 541 l0
-309 55 -113 55 -114 0 -397 0 -398 -730 0 -730 0 0 50 0 50 -60 0 -60 0 0
170 0 170 356 0 355 0 -3 33 -3 32 -151 5 -151 5 12 47 c26 101 111 181 207
194 56 8 68 34 16 34 -42 0 -115 33 -151 68 -35 33 -68 94 -77 144 l-7 37 151
3 151 3 3 298 2 297 380 0 380 0 0 -309z m612 42 l3 -268 82 -3 82 -3 3 -142
3 -142 60 -6 c68 -6 127 -33 167 -76 33 -35 67 -109 68 -145 l0 -28 -150 0
-150 0 0 -70 c0 -48 -4 -72 -12 -74 -93 -25 -130 -41 -164 -70 -51 -43 -93
-121 -101 -186 l-6 -50 139 0 139 0 -3 -135 -3 -135 40 0 41 0 0 -435 0 -435
-400 0 -400 0 0 485 0 485 48 0 c26 0 53 5 60 12 9 9 12 118 12 430 l0 418
-55 116 -55 117 2 301 c1 166 4 239 5 162 l4 -139 44 6 c54 8 112 36 159 78
40 34 86 120 86 159 0 15 3 30 7 33 3 4 60 7 125 7 l118 0 2 -267z m88 6 l0
-260 -32 3 -33 3 -3 245 c-1 134 0 250 3 257 2 7 18 13 35 13 l30 0 0 -261z
m100 1 l0 -260 -35 0 -35 0 0 260 0 260 35 0 35 0 0 -260z m90 0 l0 -260 -35
0 -35 0 0 260 0 260 35 0 35 0 0 -260z m90 0 l0 -260 -30 0 -30 0 0 260 0 260
30 0 30 0 0 -260z m100 0 l0 -260 -35 0 -35 0 0 260 0 260 35 0 35 0 0 -260z
m90 0 l0 -260 -35 0 -35 0 0 260 0 260 35 0 35 0 0 -260z m190 230 c0 -16 5
-30 10 -30 6 0 10 14 10 30 0 29 2 30 45 30 l45 0 0 -300 0 -300 -335 0 -335
0 0 30 0 30 188 0 c133 0 192 4 200 12 9 9 12 83 12 270 l0 258 80 0 80 0 0
-30z m1230 -615 l0 -645 -365 0 -364 0 -3 88 -3 87 -515 5 c-283 3 -451 6
-372 8 141 2 142 2 142 25 0 120 -115 250 -242 272 l-38 7 0 69 0 69 508 2
507 3 0 25 0 25 -162 3 -163 2 0 294 c0 161 3 296 7 299 3 4 244 7 535 7 l528
0 0 -645z m2445 -125 l910 -5 -907 -3 c-852 -2 -908 -3 -917 -19 -7 -13 -10
74 -8 282 l2 300 5 -275 5 -275 910 -5z m-6595 260 c0 -7 -387 -10 -1140 -10
-753 0 -1140 3 -1140 10 0 7 387 10 1140 10 753 0 1140 -3 1140 -10z m-1510
-50 c0 -5 -57 -11 -137 -12 l-138 -3 3 -40 c5 -55 42 -133 83 -174 39 -39 122
-81 162 -81 l27 0 0 -385 0 -385 -330 0 -330 0 0 50 0 50 -55 0 -55 0 0 495 0
495 385 0 c243 0 385 -4 385 -10z m50 0 c0 -5 -7 -10 -15 -10 -8 0 -15 5 -15
10 0 6 7 10 15 10 8 0 15 -4 15 -10z m1460 0 c0 -5 -57 -11 -137 -12 l-138 -3
2 -47 c2 -87 71 -183 158 -225 l34 -16 -38 -18 c-82 -36 -161 -154 -161 -239
l0 -30 140 0 140 0 -2 -192 c-3 -192 -3 -193 -25 -196 -20 -3 -23 -9 -23 -53
l0 -49 -690 0 -690 0 0 384 c0 295 -3 386 -12 393 -7 6 -40 13 -74 16 -122 10
-217 94 -239 210 l-7 36 158 3 c154 3 159 4 169 26 l10 22 712 0 c455 0 713
-4 713 -10z m7500 -500 l0 -260 -128 0 c-86 0 -132 -4 -140 -12 -8 -8 -12 -47
-12 -110 l0 -97 -62 -3 -63 -3 -3 -47 -3 -48 -690 0 -689 0 0 265 c0 250 1
265 18 265 10 0 41 8 68 17 97 33 184 151 184 249 l0 33 -137 4 c-76 1 266 4
760 5 l897 2 0 -260z m-8960 -195 c0 -336 -2 -385 -15 -385 -13 0 -15 49 -15
378 0 208 3 382 7 385 3 4 10 7 15 7 4 0 8 -173 8 -385z m6539 329 c62 -18
132 -78 163 -139 64 -124 13 -291 -108 -357 -27 -14 -66 -29 -86 -33 l-38 -7
0 276 c0 152 4 276 8 276 5 0 32 -7 61 -16z m481 -260 l0 -276 -37 7 c-215 40
-296 310 -139 464 40 39 122 80 164 81 9 0 12 -62 12 -276z m-2670 56 l509 0
3 -87 3 -88 375 -5 375 -5 -375 -5 -375 -5 -5 -160 -5 -160 -5 245 -5 245
-505 0 -505 0 -6 -40 c-5 -32 -6 -26 -7 30 -1 52 1 65 9 53 9 -17 45 -18 519
-18z m3498 -528 l702 -2 0 -35 0 -35 -707 2 -708 3 0 310 -1 310 6 -275 5
-275 703 -3z m-6323 498 c10 -15 688 -13 703 2 9 9 12 8 12 -5 0 -15 -30 -17
-357 -19 l-358 -3 -3 -177 c-2 -170 -3 -178 -22 -178 -19 0 -20 7 -20 195 0
186 1 195 19 195 11 0 23 -4 26 -10z m3305 -245 l0 -235 -390 0 -390 0 0 50 0
50 -99 0 c-90 0 -99 2 -104 20 -5 18 -15 20 -155 22 l-149 3 12 48 c27 105
116 180 231 195 l59 7 3 38 3 37 490 0 489 0 0 -235z m1610 66 c0 -152 3 -157
76 -141 93 21 187 97 215 173 l12 35 24 -49 c44 -88 141 -155 234 -161 l44 -3
3 138 3 137 29 0 30 0 2 -267 3 -268 78 -3 77 -3 0 -319 0 -320 -50 0 -50 0 0
140 0 140 -42 0 c-88 0 -198 -74 -241 -159 l-24 -49 -16 37 c-42 93 -161 176
-243 169 l-39 -3 -3 -138 -3 -138 -62 3 -62 3 -3 423 -2 422 -25 0 -25 0 0
165 0 165 30 0 30 0 0 -129z m-830 -46 c0 -34 -1 -35 -37 -35 -51 -1 -119 -33
-166 -78 -40 -38 -77 -99 -77 -127 0 -13 -29 -15 -225 -15 l-225 0 0 145 0
145 365 0 365 0 0 -35z m-6350 -280 l0 -105 -105 0 -105 0 0 105 0 105 105 0
105 0 0 -105z m2380 0 l0 -105 -105 0 -105 0 0 105 0 105 105 0 105 0 0 -105z
m2390 0 l0 -105 -110 0 -110 0 0 105 0 105 110 0 110 0 0 -105z m2380 0 l0
-105 -105 0 -105 0 0 105 0 105 105 0 105 0 0 -105z m2380 0 l0 -105 -105 0
-105 0 0 105 0 105 105 0 105 0 0 -105z m-7385 -30 l0 -30 -1057 -3 -1058 -2
0 35 0 35 1058 -2 1057 -3 0 -30z m1640 0 l0 -30 -687 -3 -688 -2 0 35 0 35
688 -2 687 -3 0 -30z m2255 0 l0 -35 -625 0 -625 0 0 35 0 35 625 0 625 0 0
-35z m870 -24 c0 -5 -9 -11 -20 -14 -20 -5 -20 -12 -18 -379 l3 -373 95 -6
c52 -3 -125 -5 -395 -5 l-490 1 380 5 380 5 3 388 2 387 30 0 c17 0 30 -4 30
-9z m-3118 -928 l3 -898 1645 0 1645 0 3 873 2 872 30 0 30 0 0 -905 0 -905
-1715 0 -1715 0 0 930 0 930 35 0 35 0 2 -897z m1918 797 l0 -100 -28 0 c-16
0 -57 -14 -91 -31 -73 -37 -124 -97 -147 -176 -26 -90 -29 -88 129 -91 l137
-3 0 -379 0 -380 -185 0 -185 0 0 141 0 141 -42 -7 c-131 -20 -223 -111 -252
-247 -6 -25 -11 -28 -45 -28 -45 0 -56 -11 -64 -64 -12 -78 -84 -150 -161
-163 l-35 -6 -3 114 c-3 110 -4 114 -25 117 l-23 3 0 605 0 604 50 0 c47 0 50
2 50 25 l0 25 460 0 460 0 0 -100z m27 -52 c-2 -29 -3 -6 -3 52 0 58 1 81 3
53 2 -29 2 -77 0 -105z m1173 127 c0 -24 2 -25 75 -25 l75 0 0 -335 0 -335
-85 0 -85 0 0 360 c0 233 4 360 10 360 6 0 10 -11 10 -25z m-2250 -855 c0
-547 -3 -830 -10 -830 -7 0 -10 283 -10 830 0 547 3 830 10 830 7 0 10 -283
10 -830z m2778 467 c95 -44 160 -163 149 -272 -12 -120 -107 -223 -223 -242
l-34 -6 0 276 0 277 33 -7 c17 -3 51 -15 75 -26z m442 -242 c0 -312 7 -290
-86 -258 -65 22 -137 95 -159 164 -22 65 -16 158 13 216 38 74 145 148 220
152 9 1 12 -60 12 -274z m-2143 -752 c-1 -169 -2 -33 -2 302 0 336 1 474 2
308 2 -166 2 -440 0 -610z m57 611 c3 -9 6 -22 6 -30 0 -28 42 -103 78 -139
48 -48 101 -75 163 -82 l49 -6 0 137 0 136 229 0 230 0 3 -22 c3 -22 7 -23
117 -26 l114 -3 -6 -36 c-14 -83 -91 -152 -178 -161 l-49 -5 0 -48 c0 -48 0
-48 -37 -55 -122 -22 -217 -122 -238 -251 l-7 -43 141 0 141 0 0 -170 0 -170
-390 0 -390 0 0 495 c0 451 4 531 24 479z m1266 -139 l0 -155 -240 0 c-201 0
-240 2 -240 14 0 9 22 21 56 31 74 21 137 83 158 156 25 83 30 79 -99 79 -96
0 -115 3 -115 15 0 13 33 15 240 15 l240 0 0 -155z m-2450 -45 l0 -30 -400 0
-400 0 0 30 0 30 400 0 400 0 0 -30z m712 -167 l3 -138 193 -3 192 -2 0 -210
0 -210 -40 0 c-38 0 -40 -2 -40 -30 l0 -30 -300 0 -300 0 0 239 c0 230 1 239
20 244 14 4 20 14 20 35 0 115 114 237 227 241 22 1 22 -2 25 -136z m-767 78
c-108 -104 -336 -311 -343 -311 -6 0 -275 243 -372 336 -12 12 40 14 370 14
l385 0 -40 -39z m-510 -196 c77 -71 141 -132 143 -135 2 -6 -312 -301 -361
-339 -16 -13 -17 5 -17 340 l0 353 48 -45 c26 -25 110 -103 187 -174z m565
-114 c0 -321 0 -329 -20 -334 -16 -4 -58 30 -184 146 -90 84 -166 156 -167
161 -3 6 356 353 369 355 1 1 2 -147 2 -328z m2450 -66 l0 -325 -240 0 -240 0
-2 178 -3 177 -139 3 -138 3 6 42 c18 110 127 207 232 207 27 0 37 5 41 20 5
19 14 20 244 20 l239 0 0 -325z m-2340 40 l0 -116 38 7 c110 20 184 89 207
192 3 18 13 32 21 32 12 0 14 -39 14 -240 l0 -240 -149 0 -148 0 -7 46 c-3 26
-6 134 -6 240 0 166 2 194 15 194 12 0 15 -19 15 -115z m-325 -183 c96 -89
175 -167 175 -172 0 -6 -137 -10 -367 -10 l-368 0 30 30 c89 88 341 318 347
317 4 -1 86 -75 183 -165z m285 -162 c0 -15 -7 -20 -28 -20 -16 0 -37 9 -47
20 -18 20 -17 20 28 20 40 0 47 -3 47 -20z m1060 0 c0 -17 -7 -20 -40 -20 -33
0 -40 3 -40 20 0 17 7 20 40 20 33 0 40 -3 40 -20z"/>
<path d="M7630 4520 c0 -11 5 -20 10 -20 6 0 10 9 10 20 0 11 -4 20 -10 20 -5
0 -10 -9 -10 -20z"/>
</g>
</svg>
